<svg xmlns="http://www.w3.org/2000/svg" width="41.602" height="28.84" viewBox="0 0 41.602 28.84">
    <g data-name="그룹 237">
        <g data-name="그룹 236">
            <path data-name="사각형 83" transform="rotate(-45.001 42.638 -21.908)" style="fill:none;stroke:#0e0e0e;stroke-linejoin:round" d="M0 0h11.991v4.611H0z"/>
            <path data-name="패스 236" d="m585.983 444.885-1.3-1.306a1.385 1.385 0 0 0-1.956 0l-.979.979 3.261 3.261.978-.978a1.381 1.381 0 0 0-.004-1.956z" transform="translate(-545.286 -429.303)" style="fill:none;stroke:#0e0e0e;stroke-linejoin:round"/>
            <path data-name="패스 235" d="m564.56 464.89 1.427-4.606 3.26 3.26z" transform="translate(-538.007 -436.551)" style="fill:none;stroke:#0e0e0e;stroke-linejoin:round"/>
        </g>
    </g>
    <path data-name="패스 237" d="M533.64 425.235a14.411 14.411 0 0 1 14.41 14.411c0 3.67-1.2 6.973-5.152 11.2a11.543 11.543 0 0 0 1.312 1.731 6.557 6.557 0 0 0 1.7 1.478h-12.27a14.41 14.41 0 1 1 0-28.821z" transform="translate(-519.229 -425.235)" style="fill:#0e0e0e"/>
    <text transform="translate(2.882 17.531)" style="fill:#ebebeb;font-size:12px;font-family:MBCNEWOTFLight,MBC NEW OTF;letter-spacing:-.05em"><tspan x="0" y="0">내글</tspan></text>
</svg>
