<svg xmlns="http://www.w3.org/2000/svg" width="12.153" height="12.153" viewBox="0 0 12.153 12.153">
    <path data-name="패스 313"
        d="m1.012 1.138 13.645-.1a.847.847 0 0 1 .855.855.876.876 0 0 1-.868.868L1 2.861a.847.847 0 0 1-.855-.855.876.876 0 0 1 .867-.868z"
        transform="rotate(-45 11.932 6.128)" style="fill:#fff" />
    <path data-name="패스 314"
        d="m.8-.054 13.645.1a.876.876 0 0 1 .868.868.847.847 0 0 1-.855.855l-13.645-.1A.876.876 0 0 1-.054.8.847.847 0 0 1 .8-.054z"
        transform="rotate(45 .552 1.592)" style="fill:#fff" />
</svg>