<svg xmlns="http://www.w3.org/2000/svg" width="31.869" height="31.869" viewBox="0 0 31.869 31.869">
    <path data-name="선 71" transform="translate(12 19)" style="fill:none;stroke:#7742cc;stroke-linejoin:round;stroke-width:2px" d="M0 0h3"/>
    <path data-name="선 155" transform="translate(8 19)" style="fill:none;stroke:#7742cc;stroke-linejoin:round;stroke-width:2px" d="M0 0h3"/>
    <path data-name="선 72" transform="translate(12 16)" style="fill:none;stroke:#7742cc;stroke-linejoin:round;stroke-width:2px" d="M0 0h3"/>
    <path data-name="선 156" transform="translate(8 16)" style="fill:none;stroke:#7742cc;stroke-linejoin:round;stroke-width:2px" d="M0 0h3"/>
    <path data-name="선 73" transform="translate(12 13)" style="fill:none;stroke:#7742cc;stroke-linejoin:round;stroke-width:2px" d="M0 0h3"/>
    <path data-name="선 74" transform="translate(12 10)" style="fill:none;stroke:#7742cc;stroke-linejoin:round;stroke-width:2px" d="M0 0h3"/>
    <path data-name="선 75" transform="translate(12 7)" style="fill:none;stroke:#7742cc;stroke-linejoin:round;stroke-width:2px" d="M0 0h3"/>
    <path data-name="선 76" transform="translate(12 22)" style="fill:none;stroke:#7742cc;stroke-linejoin:round;stroke-width:2px" d="M0 0h3"/>
    <path data-name="선 154" transform="translate(8 22)" style="fill:none;stroke:#7742cc;stroke-linejoin:round;stroke-width:2px" d="M0 0h3"/>
    <path data-name="선 77" transform="translate(12 25)" style="fill:none;stroke:#7742cc;stroke-linejoin:round;stroke-width:2px" d="M0 0h3"/>
    <path data-name="선 153" transform="translate(8 25)" style="fill:none;stroke:#7742cc;stroke-linejoin:round;stroke-width:2px" d="M0 0h3"/>
    <path data-name="선 78" transform="translate(16 19)" style="fill:none;stroke:#7742cc;stroke-linejoin:round;stroke-width:2px" d="M0 0h3"/>
    <path data-name="선 79" transform="translate(16 16)" style="fill:none;stroke:#7742cc;stroke-linejoin:round;stroke-width:2px" d="M0 0h3"/>
    <path data-name="선 80" transform="translate(16 13)" style="fill:none;stroke:#7742cc;stroke-linejoin:round;stroke-width:2px" d="M0 0h3"/>
    <path data-name="선 81" transform="translate(16 22)" style="fill:none;stroke:#7742cc;stroke-linejoin:round;stroke-width:2px" d="M0 0h3"/>
    <path data-name="선 82" transform="translate(16 25)" style="fill:none;stroke:#7742cc;stroke-linejoin:round;stroke-width:2px" d="M0 0h3"/>
    <path data-name="선 83" transform="translate(20 22)" style="fill:none;stroke:#7742cc;stroke-linejoin:round;stroke-width:2px" d="M0 0h3"/>
    <path data-name="선 84" transform="translate(20 25)" style="fill:none;stroke:#7742cc;stroke-linejoin:round;stroke-width:2px" d="M0 0h3"/>
    <path data-name="패스 237" d="M15.934 0A15.934 15.934 0 1 1 0 15.934 15.934 15.934 0 0 1 15.934 0z" style="opacity:.06"/>
</svg>
