<svg xmlns="http://www.w3.org/2000/svg" width="24" height="24" viewBox="0 0 24 24">
    <defs>
        <clipPath id="lo17swlqma">
            <path data-name="사각형 134" transform="translate(0 -.2)" style="stroke:#eee;fill:none" d="M0 0h19v20H0z"/>
        </clipPath>
        <clipPath id="tj4iqkyw1b">
            <path data-name="사각형 137" transform="translate(-.4 .164)" style="fill:#333;stroke:#e9e9e9" d="M0 0h13v13H0z"/>
        </clipPath>
    </defs>
    <g data-name="그룹 344">
        <g data-name="그룹 343">
            <g data-name="그룹 342" transform="translate(5 .2)" style="clip-path:url(#lo17swlqma)">
                <g data-name="사각형 133" style="stroke-dasharray:4 2;stroke-linejoin:round;stroke-width:2px;stroke:#eee;fill:none">
                    <path style="stroke:none" d="M0 0h18v18H0z" transform="translate(0 .8)"/>
                    <path style="fill:none" d="M1 1h16v16H1z" transform="translate(0 .8)"/>
                </g>
            </g>
            <path data-name="패스 315" d="M19.92 11.677h-5.8V5.831" transform="translate(-.775 -.808)" style="stroke:#f1f1f1;stroke-linejoin:round;stroke-width:2px;fill:none"/>
            <path data-name="선 176" transform="translate(13.341 1.773)" style="stroke-linejoin:round;stroke-width:2px;stroke:#eee;fill:none" d="M8.843 0 0 9.096"/>
        </g>
    </g>
    <g data-name="그룹 347">
        <path data-name="사각형 135" transform="translate(1 11)" style="fill:none" d="M0 0h11v11H0z"/>
        <g data-name="그룹 346">
            <g data-name="그룹 345" style="clip-path:url(#tj4iqkyw1b)" transform="translate(.4 10.836)">
                <path data-name="사각형 136" transform="translate(.6 1.164)" style="stroke-linejoin:round;stroke-width:2px;fill:#333;stroke:#e9e9e9" d="M0 0h11v11H0z"/>
            </g>
        </g>
    </g>
</svg>
