<svg xmlns="http://www.w3.org/2000/svg" width="14.002" height="14.002" viewBox="0 0 14.002 14.002">
    <path data-name="패스 261" d="M1.49.008h13.842a1.49 1.49 0 0 1 0 2.979H1.49a1.49 1.49 0 0 1 0-2.979z" transform="rotate(-45 14.35 5.951)" style="fill:#3e3e5a"/>
    <path data-name="사각형 13" d="M1 0h7.838a1 1 0 0 1 1 1v1.982H1a1 1 0 0 1-1-1V1a1 1 0 0 1 1-1z" transform="rotate(90 -.142 3.288)" style="fill:#3e3e5a"/>
    <path data-name="사각형 96" d="M1 0h9.838v1.982a1 1 0 0 1-1 1H1a1 1 0 0 1-1-1V1a1 1 0 0 1 1-1z" transform="rotate(180 5.787 6.92)" style="fill:#3e3e5a"/>
</svg>
