<svg xmlns="http://www.w3.org/2000/svg" width="51.588" height="16.052" viewBox="0 0 51.588 16.052">
    <g>
        <path data-name="패스 322" d="M20.096 3.749h-7.957c-2.061 0-3.317.955-3.317 2.928v9.372h3.521v-8.9h2.018v8.9h3.512v-8.9h2.02v8.9h3.52V6.678c0-1.971-1.256-2.929-3.317-2.929zm23.15 8.966V7.121h8.293V3.749h-8.682c-2.128 0-3.25 1.131-3.25 2.9v6.538c0 1.613.935 2.855 3.311 2.855h8.67v-3.333zm-9.157-3.231v3.212h-5.215V7.135h5.215v2.338c1.817 0 3.8-.737 3.8-2.774 0-1.994-1.536-2.914-3.985-2.95h-8.6v12.3h8.676c2.456 0 4.65-.9 4.65-3.276-.007-2.347-1.942-3.286-4.542-3.286z"/>
        <circle data-name="타원 39" cx="2.186" cy="2.186" transform="translate(1.682)" style="fill:#808285" r="2.186"/>
        <path data-name="패스 323" d="M919.377 549.8h4.69s.976-.064.976.833v9.567h-3.525v-8.356h-2.14z" transform="translate(-919.377 -544.289)" style="fill:#808285"/>
    </g>
</svg>
