<svg xmlns="http://www.w3.org/2000/svg" width="42.693" height="12.279" viewBox="0 0 42.693 12.279">
    <path d="M11.254 0H3.311C1.253 0 0 .954 0 2.923v9.356h3.514V3.39h2.013v8.889h3.506V3.39h2.016v8.889h3.514V2.923C14.566.958 13.312 0 11.254 0zm23.111 8.951V3.366h8.279V.001h-8.667c-2.124 0-3.245 1.129-3.245 2.9v6.527c0 1.61.934 2.851 3.305 2.851h8.656V8.951zm-9.142-3.226v3.206h-5.206V3.38h5.21v2.333c1.814 0 3.792-.736 3.792-2.769 0-1.991-1.533-2.909-3.979-2.945h-8.589v12.279h8.661c2.452 0 4.642-.9 4.642-3.271-.003-2.344-1.935-3.281-4.527-3.281z"/>
</svg>
