<svg xmlns="http://www.w3.org/2000/svg" width="43.151" height="43" viewBox="0 0 43.151 43">
    <path data-name="패스 276" d="M21 0A21 21 0 1 1 0 21 21 21 0 0 1 21 0z" transform="translate(.682 1)" style="opacity:.2;fill:#ebebeb"/>
    <path data-name="패스 301" d="M848.756 147.968c0-3.329-3.862-10.522-9.121-11.99a.77.77 0 0 1-.074-1.456 7.973 7.973 0 0 0 4.82-7.312 8.11 8.11 0 1 0-11.588 7.312c.822.389.793 1.268.084 1.456-5.243 1.478-9.091 8.773-9.091 11.99v.516a20.563 20.563 0 1 1 33.17-16.255 22.011 22.011 0 0 1-8.114 16.675z" transform="translate(-814.802 -110.675)" style="fill:none;stroke:#7742cc;stroke-linecap:round;stroke-linejoin:round;stroke-width:2px"/>
    <path data-name="패스 276" d="M0 45.41z" transform="translate(.682 -23.41)" style="fill:#fff;opacity:.2"/>
</svg>
