<svg xmlns="http://www.w3.org/2000/svg" width="73" height="72" viewBox="0 0 73 72">
    <defs>
        <clipPath id="3lyj47ek0a">
            <path data-name="사각형 134" style="fill:none" d="M0 0h41v34H0z"/>
        </clipPath>
    </defs>
    <g transform="translate(16.095 19.333)">
        <ellipse data-name="타원 40" cx="36.5" cy="36" rx="36.5" ry="36" transform="translate(-16.095 -19.333)" style="opacity:.05"/>
        <path data-name="선 180" transform="translate(6.905 9.667)" style="stroke:#333;stroke-linejoin:round;stroke-width:2px;fill:none" d="M15 0H0"/>
        <path data-name="선 181" transform="translate(6.905 15.667)" style="stroke:#333;stroke-linejoin:round;stroke-width:2px;fill:none" d="M12 0H0"/>
        <g data-name="그룹 362">
            <g data-name="그룹 361" transform="translate(-.095 -.333)" style="clip-path:url(#3lyj47ek0a)">
                <path data-name="패스 329" d="M36.894 10.729c4.324 1.991 7.263 5.9 7.263 10.395a11.482 11.482 0 0 1-6.275 9.893 5.957 5.957 0 0 0 1.679 4.263 5.717 5.717 0 0 1-4.961-2.925 15.912 15.912 0 0 1-4.229.565 15.53 15.53 0 0 1-7-1.63" transform="translate(-4.254 -1.68)" style="stroke:#333;stroke-linejoin:round;stroke-width:2px;fill:none"/>
                <path data-name="패스 330" d="M7.275 22.69A5.961 5.961 0 0 1 5.6 26.953a5.717 5.717 0 0 0 4.962-2.925 15.945 15.945 0 0 0 4.229.565c7.615 0 13.787-5.281 13.787-11.8S22.4 1 14.787 1 1 6.281 1 12.8a11.482 11.482 0 0 0 6.275 9.89z" transform="translate(-.027 .158)" style="stroke:#333;stroke-linejoin:round;stroke-width:2px;fill:none"/>
            </g>
        </g>
    </g>
</svg>
