<svg xmlns="http://www.w3.org/2000/svg" width="36.441" height="19.614" viewBox="0 0 36.441 19.614">
    <path data-name="패스 260" d="M5.6 0A5.6 5.6 0 1 1 0 5.6 5.6 5.6 0 0 1 5.6 0z" transform="translate(18.972 .75)" style="fill:none;stroke:#fff;stroke-width:1.5px"/>
    <path data-name="패스 257" d="M679.872 361.777a12.478 12.478 0 0 0-11.2-7.013 12.392 12.392 0 0 0-8.873 3.726 12.528 12.528 0 0 0-2.324 3.286" transform="translate(-644.105 -342.491)" style="stroke-linejoin:round;fill:none;stroke:#fff;stroke-width:1.5px"/>
    <g data-name="그룹 262">
        <path data-name="패스 258" d="M649.031 350.992h-1.285V347.1a1.456 1.456 0 0 0-.353-1.071 1.26 1.26 0 0 0-.932-.353 1.345 1.345 0 0 0-.945.346 1.307 1.307 0 0 0-.379 1.014v3.955h-1.285V347.1a1.451 1.451 0 0 0-.355-1.071 1.28 1.28 0 0 0-.941-.353 1.332 1.332 0 0 0-.96.359 1.405 1.405 0 0 0-.375 1.064v3.892h-1.26v-6.386h1.26v.642a2.165 2.165 0 0 1 .768-.529 2.407 2.407 0 0 1 .932-.189 2.017 2.017 0 0 1 1.814.932 2.475 2.475 0 0 1 2-.932 2.631 2.631 0 0 1 .906.151 1.976 1.976 0 0 1 .705.428 2.19 2.19 0 0 1 .511.8 2.871 2.871 0 0 1 .17 1z" transform="translate(-639.962 -338.419)" style="fill:#fff"/>
        <path data-name="패스 259" d="m659.731 344.637-2.825 7.659a2.018 2.018 0 0 1-.446.775 1.509 1.509 0 0 1-.6.378 2.347 2.347 0 0 1-.731.107h-.516v-1.146h.327a.97.97 0 0 0 .585-.139 1.222 1.222 0 0 0 .334-.546l.353-1-2.229-6.085h1.367l1.52 4.477 1.487-4.472z" transform="translate(-644.172 -338.45)" style="fill:#fff"/>
    </g>
</svg>
