<svg xmlns="http://www.w3.org/2000/svg" width="64" height="64" viewBox="0 0 64 64">
    <g data-name="패스 238" style="fill:none">
        <path d="M32 0A32 32 0 1 1 0 32 32 32 0 0 1 32 0z" style="stroke:none"/>
        <path d="M32 2a29.902 29.902 0 0 0-21.213 8.787A29.902 29.902 0 0 0 2 32a29.902 29.902 0 0 0 8.787 21.213A29.902 29.902 0 0 0 32 62a29.902 29.902 0 0 0 21.213-8.787A29.902 29.902 0 0 0 62 32a29.902 29.902 0 0 0-8.787-21.213A29.902 29.902 0 0 0 32 2m0-2c17.673 0 32 14.327 32 32 0 17.673-14.327 32-32 32C14.327 64 0 49.673 0 32 0 14.327 14.327 0 32 0z" style="fill:#7742cc;stroke:none"/>
    </g>
    <path data-name="다각형 1" d="M10.567 1.145a1 1 0 0 1 1.63 0L21.64 14.42a1 1 0 0 1-.815 1.58H1.939a1 1 0 0 1-.815-1.58z" transform="rotate(90 11.095 32.096)" style="fill:#7742cc"/>
</svg>
