<svg xmlns="http://www.w3.org/2000/svg" width="64" height="64" viewBox="0 0 64 64">
    <g transform="translate(-177.411 -.207)">
        <g data-name="패스 238" style="fill:none">
            <path d="M32 0A32 32 0 1 1 0 32 32 32 0 0 1 32 0z" style="stroke:none" transform="translate(177.411 .207)"/>
            <path d="M32 2a29.902 29.902 0 0 0-21.213 8.787A29.902 29.902 0 0 0 2 32a29.902 29.902 0 0 0 8.787 21.213A29.902 29.902 0 0 0 32 62a29.902 29.902 0 0 0 21.213-8.787A29.902 29.902 0 0 0 62 32a29.902 29.902 0 0 0-8.787-21.213A29.902 29.902 0 0 0 32 2m0-2c17.673 0 32 14.327 32 32 0 17.673-14.327 32-32 32C14.327 64 0 49.673 0 32 0 14.327 14.327 0 32 0z" style="fill:#7742cc;stroke:none" transform="translate(177.411 .207)"/>
        </g>
        <rect data-name="사각형 16" width="5" height="18" rx="2.5" transform="translate(201.411 23.207)" style="fill:#7742cc"/>
        <rect data-name="사각형 17" width="5" height="18" rx="2.5" transform="translate(212.411 23.207)" style="fill:#7742cc"/>
    </g>
</svg>
