<svg xmlns="http://www.w3.org/2000/svg" width="50" height="50" viewBox="0 0 50 50">
    <g transform="translate(-177.411 -.207)">
        <g data-name="패스 238" style="fill:#7742cc">
            <path d="M25 49a23.921 23.921 0 0 1-16.97-7.03A23.921 23.921 0 0 1 1 25 23.921 23.921 0 0 1 8.03 8.03 23.921 23.921 0 0 1 25 1a23.921 23.921 0 0 1 16.97 7.03A23.921 23.921 0 0 1 49 25a23.921 23.921 0 0 1-7.03 16.97A23.921 23.921 0 0 1 25 49z" style="stroke:none" transform="translate(177.411 .207)"/>
            <path d="M25 2A22.926 22.926 0 0 0 8.736 8.737 22.926 22.926 0 0 0 2 25a22.926 22.926 0 0 0 6.737 16.264A22.926 22.926 0 0 0 25 48a22.926 22.926 0 0 0 16.264-6.737A22.926 22.926 0 0 0 48 25a22.926 22.926 0 0 0-6.737-16.264A22.926 22.926 0 0 0 25 2m0-2c13.807 0 25 11.193 25 25S38.807 50 25 50 0 38.807 0 25 11.193 0 25 0z" style="fill:#7742cc;stroke:none" transform="translate(177.411 .207)"/>
        </g>
        <rect data-name="사각형 17" width="4" height="14" rx="2" transform="translate(204.745 18.207)" style="fill:#f8f8f8"/>
        <rect data-name="사각형 145" width="4" height="14" rx="2" transform="translate(196.245 18.207)" style="fill:#f8f8f8"/>
    </g>
</svg>
