<svg xmlns="http://www.w3.org/2000/svg" width="111.535" height="13.25" viewBox="0 0 111.535 13.25">
    <path data-name="패스 324" d="M11.783.52H3.467C1.313.52 0 1.52 0 3.582v9.793h3.678V4.069h2.11v9.306h3.671V4.069h2.11v9.306h3.678V3.582c0-2.062-1.31-3.062-3.464-3.062zm24.193 9.371V4.045h8.667V.523h-9.072c-2.225 0-3.4 1.181-3.4 3.035v6.833c0 1.684.977 2.984 3.46 2.984h9.061V9.891zM26.4 6.515V9.87h-5.447V4.059H26.4V6.5c1.9 0 3.971-.769 3.971-2.9 0-2.086-1.606-3.045-4.165-3.083h-8.989v12.858h9.068c2.566 0 4.859-.939 4.859-3.423 0-2.452-2.021-3.437-4.744-3.437z" transform="translate(0 -.343)" style="fill:#fff"/>
    <g data-name="그룹 364">
        <g data-name="그룹 363">
            <path data-name="패스 325" d="M152.63.65h5.856a5.091 5.091 0 0 1 3.733 1.3 4.023 4.023 0 0 1 1.1 2.93v.037a3.975 3.975 0 0 1-2.746 3.971l3.13 4.577h-3.294l-2.746-4.1h-2.215v4.1h-2.818V.65zm5.67 6.22c1.371 0 2.161-.732 2.161-1.814v-.034c0-1.208-.84-1.831-2.215-1.831h-2.8V6.87z" transform="translate(-100.695 -.429)" style="fill:#fff"/>
            <path data-name="패스 326" d="M192.985.38h2.6l5.492 12.9h-2.947l-1.171-2.872h-5.417l-1.171 2.872H187.5zm2.964 7.54-1.7-4.155-1.7 4.155z" transform="translate(-123.7 -.251)" style="fill:#fff"/>
            <path data-name="패스 327" d="M232.39.65h5c4.025 0 6.809 2.763 6.809 6.37v.037c0 3.607-2.783 6.407-6.809 6.407h-5zm2.817 2.542v7.724h2.178a3.65 3.65 0 0 0 3.862-3.825v-.037a3.679 3.679 0 0 0-3.862-3.862h-2.178z" transform="translate(-153.315 -.429)" style="fill:#fff"/>
            <path data-name="패스 328" d="M273.28.65h2.82v12.811h-2.82z" transform="translate(-180.292 -.429)" style="fill:#fff"/>
            <path data-name="패스 329" d="M287.77 6.662v-.037a6.812 6.812 0 0 1 13.617-.037v.037a6.812 6.812 0 0 1-13.617.037zm10.667 0v-.037a3.891 3.891 0 0 0-3.879-4.025 3.833 3.833 0 0 0-3.845 3.991v.037a3.891 3.891 0 0 0 3.879 4.025 3.835 3.835 0 0 0 3.845-3.991z" transform="translate(-189.852)" style="fill:#fff"/>
        </g>
    </g>
</svg>
