<svg xmlns="http://www.w3.org/2000/svg" width="21.5" height="22.5" viewBox="0 0 21.5 22.5">
    <path data-name="패스 253" d="M746.273 703.35a7.884 7.884 0 0 0-.235-1.881l2.385-1.743-1.873-3.255-2.7 1.2a7.829 7.829 0 0 0-3.248-1.883l-.312-2.94h-3.744l-.312 2.94a7.827 7.827 0 0 0-3.248 1.883l-2.7-1.2-1.873 3.255 2.385 1.743a7.665 7.665 0 0 0 0 3.761l-2.385 1.742 1.873 3.254 2.7-1.2a7.826 7.826 0 0 0 3.248 1.883l.312 2.941h3.754l.312-2.941a7.841 7.841 0 0 0 3.248-1.883l2.7 1.2 1.873-3.254-2.385-1.742a7.893 7.893 0 0 0 .225-1.88zm-7.849 3.938a3.938 3.938 0 1 1 3.925-3.938 3.932 3.932 0 0 1-3.925 3.938z" transform="translate(-727.674 -692.101)" style="fill:none;stroke:#ebebeb;stroke-linecap:round;stroke-linejoin:round;stroke-width:1.5px"/>
</svg>
