<svg xmlns="http://www.w3.org/2000/svg" width="33.355" height="23.5" viewBox="0 0 33.355 23.5">
    <path data-name="패스 288" d="M170.138 101.594a4.191 4.191 0 0 0-2.949-2.968c-2.6-.7-13.032-.7-13.032-.7s-10.43 0-13.032.7a4.191 4.191 0 0 0-2.949 2.968 47.187 47.187 0 0 0 0 16.161 4.191 4.191 0 0 0 2.949 2.968c2.6.7 13.032.7 13.032.7s10.43 0 13.032-.7a4.191 4.191 0 0 0 2.949-2.968 47.191 47.191 0 0 0 0-16.161z" transform="translate(-137.48 -97.924)" style="fill:#333"/>
    <path data-name="패스 289" d="M362.964 223.262v-9.919l8.718 4.96z" transform="translate(-349.697 -206.553)" style="fill:#fefefe"/>
</svg>
