<svg xmlns="http://www.w3.org/2000/svg" width="28.481" height="26.119" viewBox="0 0 28.481 26.119">
    <text transform="translate(2.668 14.94)" style="fill:#333;font-size:12px;font-family:Roboto-Bold,Roboto;font-weight:700;letter-spacing:-.02em"><tspan x="0" y="0">SNS</tspan></text>
    <path data-name="패스 304" d="M-1131.667 2911.833c.063-2.521.073-14.615.073-14.615a2.543 2.543 0 0 1 2.656-2.156c2.344.063 21.563 0 21.563 0a2.354 2.354 0 0 1 2.188 2.406v14.365s0 2.135-1.312 2.792a7.148 7.148 0 0 1-3.583.25 4.211 4.211 0 0 0 2.771 3.563c1.613.637-1.023 1.277-5.1 0-2.219-.693-4.382-2.6-4.75-3.562 0-.062-11.771 0-11.771 0s-2.797-.522-2.735-3.043z" transform="translate(1132.668 -2894.06)" style="fill:none;stroke:#333;stroke-linejoin:round;stroke-width:2px"/>
</svg>
