<svg xmlns="http://www.w3.org/2000/svg" width="24.5" height="23.75" viewBox="0 0 24.5 23.75">
    <g data-name="그룹 255">
        <path data-name="사각형 91" transform="translate(.75 9)" style="stroke:#000;stroke-linejoin:round;stroke-width:1.5px;fill:none" d="M0 0h23v14H0z"/>
        <path data-name="사각형 92" transform="translate(.75 3)" style="stroke:#000;stroke-linejoin:round;stroke-width:1.5px;fill:none" d="M0 0h23v6H0z"/>
    </g>
    <g data-name="그룹 256">
        <path data-name="선 134" transform="translate(6.749 -.001)" style="fill:#f5f0f6;stroke:#000;stroke-linejoin:round;stroke-width:1.5px" d="M0 0v6"/>
        <path data-name="선 135" transform="translate(17.749 -.001)" style="fill:#f5f0f6;stroke:#000;stroke-linejoin:round;stroke-width:1.5px" d="M0 0v6"/>
    </g>
    <path data-name="선 136" transform="translate(3.84 14.046)" style="stroke:#000;stroke-linejoin:round;stroke-width:1.5px;fill:none" d="M0 0h3.067"/>
    <path data-name="선 137" transform="translate(8.452 14.046)" style="stroke:#000;stroke-linejoin:round;stroke-width:1.5px;fill:none" d="M0 0h3.067"/>
    <path data-name="선 138" transform="translate(13.018 14.046)" style="stroke:#000;stroke-linejoin:round;stroke-width:1.5px;fill:none" d="M0 0h3.067"/>
    <path data-name="선 139" transform="translate(17.63 14.046)" style="stroke:#000;stroke-linejoin:round;stroke-width:1.5px;fill:none" d="M0 0h3.067"/>
    <path data-name="선 140" transform="translate(3.84 17.127)" style="stroke:#000;stroke-linejoin:round;stroke-width:1.5px;fill:none" d="M0 0h3.067"/>
    <path data-name="선 141" transform="translate(8.452 17.127)" style="stroke:#000;stroke-linejoin:round;stroke-width:1.5px;fill:none" d="M0 0h3.067"/>
    <path data-name="선 142" transform="translate(13.018 17.127)" style="stroke:#000;stroke-linejoin:round;stroke-width:1.5px;fill:none" d="M0 0h3.067"/>
    <path data-name="선 143" transform="translate(17.63 17.127)" style="stroke:#000;stroke-linejoin:round;stroke-width:1.5px;fill:none" d="M0 0h3.067"/>
</svg>
