<svg xmlns="http://www.w3.org/2000/svg" width="24" height="24" viewBox="0 0 24 24">
    <g transform="translate(-815.847 -573)">
        <path data-name="패스 275" d="M832.92 573h-10.145a6.927 6.927 0 0 0-6.928 6.927v10.146a6.928 6.928 0 0 0 6.928 6.927h10.145a6.927 6.927 0 0 0 6.927-6.927v-10.146A6.927 6.927 0 0 0 832.92 573zm4.718 17.251a4.6 4.6 0 0 1-4.6 4.6h-10.382a4.6 4.6 0 0 1-4.6-4.6v-10.383a4.6 4.6 0 0 1 4.6-4.6h10.383a4.6 4.6 0 0 1 4.6 4.6z" style="fill:#333"/>
        <path data-name="패스 276" d="M830.116 580.731a6.617 6.617 0 1 0 6.617 6.617 6.617 6.617 0 0 0-6.617-6.617zm0 10.906a4.29 4.29 0 1 1 4.29-4.29 4.289 4.289 0 0 1-4.29 4.29z" transform="translate(-2.269 -2.292)" style="fill:#333"/>
        <circle data-name="타원 26" cx="1.353" cy="1.353" r="1.353" transform="translate(832.989 577.183)" style="fill:#333"/>
    </g>
</svg>
