<svg xmlns="http://www.w3.org/2000/svg" width="12.312" height="11.581" viewBox="0 0 12.312 11.581">
    <path data-name="패스 261" d="M1.09 0h10.132a1.15 1.15 0 0 1 1.09 1.2 1.15 1.15 0 0 1-1.09 1.2H1.09C.65 1.919 0 1.866 0 1.2S.3.877 1.09 0z" transform="translate(0 4.588)" style="fill:#969696"/>
    <path data-name="사각형 13" d="M1 0h6.485v2.4H1a1 1 0 0 1-1-1V1a1 1 0 0 1 1-1z" transform="rotate(135 3.235 2.335)" style="fill:#969696"/>
    <path data-name="사각형 107" d="M1 0h6.485v2.4H1a1 1 0 0 1-1-1V1a1 1 0 0 1 1-1z" transform="rotate(-135 5.135 4.656)" style="fill:#969696"/>
</svg>
