<svg xmlns="http://www.w3.org/2000/svg" width="12.312" height="11.581" viewBox="0 0 12.312 11.581">
    <path data-name="패스 261" d="M1.09 2.4h10.132a1.15 1.15 0 0 0 1.09-1.2 1.15 1.15 0 0 0-1.09-1.2H1.09C.65.485 0 .538 0 1.2s.3.327 1.09 1.2z" transform="rotate(180 6.156 3.496)" style="fill:#969696"/>
    <path data-name="사각형 13" d="M1 0h6.485v2.4H1a1 1 0 0 1-1-1V1a1 1 0 0 1 1-1z" transform="rotate(45 3.418 8.254)" style="fill:#969696"/>
    <path data-name="사각형 107" d="M1 0h6.485v2.4H1a1 1 0 0 1-1-1V1a1 1 0 0 1 1-1z" transform="rotate(-45 14.496 -1.262)" style="fill:#969696"/>
</svg>
