<svg xmlns="http://www.w3.org/2000/svg" width="15" height="20" viewBox="0 0 15 20">
    <g data-name="그룹 198">
        <path data-name="선 71" transform="translate(4.001 13)" style="fill:none;stroke:#7742cc;stroke-linejoin:round;stroke-width:2px" d="M0 0h3"/>
        <path data-name="선 155" transform="translate(.001 13)" style="fill:none;stroke:#7742cc;stroke-linejoin:round;stroke-width:2px" d="M0 0h3"/>
        <path data-name="선 72" transform="translate(4.001 10)" style="fill:none;stroke:#7742cc;stroke-linejoin:round;stroke-width:2px" d="M0 0h3"/>
        <path data-name="선 156" transform="translate(.001 10)" style="fill:none;stroke:#7742cc;stroke-linejoin:round;stroke-width:2px" d="M0 0h3"/>
        <path data-name="선 73" transform="translate(4.001 7)" style="fill:none;stroke:#7742cc;stroke-linejoin:round;stroke-width:2px" d="M0 0h3"/>
        <path data-name="선 74" transform="translate(4.001 4)" style="fill:none;stroke:#7742cc;stroke-linejoin:round;stroke-width:2px" d="M0 0h3"/>
        <path data-name="선 75" transform="translate(4.001 1)" style="fill:none;stroke:#7742cc;stroke-linejoin:round;stroke-width:2px" d="M0 0h3"/>
        <path data-name="선 76" transform="translate(4.001 16)" style="fill:none;stroke:#7742cc;stroke-linejoin:round;stroke-width:2px" d="M0 0h3"/>
        <path data-name="선 154" transform="translate(.001 16)" style="fill:none;stroke:#7742cc;stroke-linejoin:round;stroke-width:2px" d="M0 0h3"/>
        <path data-name="선 77" transform="translate(4.001 19)" style="fill:none;stroke:#7742cc;stroke-linejoin:round;stroke-width:2px" d="M0 0h3"/>
        <path data-name="선 153" transform="translate(.001 19)" style="fill:none;stroke:#7742cc;stroke-linejoin:round;stroke-width:2px" d="M0 0h3"/>
        <path data-name="선 78" transform="translate(8.001 13)" style="fill:none;stroke:#7742cc;stroke-linejoin:round;stroke-width:2px" d="M0 0h3"/>
        <path data-name="선 79" transform="translate(8.001 10)" style="fill:none;stroke:#7742cc;stroke-linejoin:round;stroke-width:2px" d="M0 0h3"/>
        <path data-name="선 80" transform="translate(8.001 7)" style="fill:none;stroke:#7742cc;stroke-linejoin:round;stroke-width:2px" d="M0 0h3"/>
        <path data-name="선 81" transform="translate(8.001 16)" style="fill:none;stroke:#7742cc;stroke-linejoin:round;stroke-width:2px" d="M0 0h3"/>
        <path data-name="선 82" transform="translate(8.001 19)" style="fill:none;stroke:#7742cc;stroke-linejoin:round;stroke-width:2px" d="M0 0h3"/>
        <path data-name="선 83" transform="translate(12.001 16)" style="fill:none;stroke:#7742cc;stroke-linejoin:round;stroke-width:2px" d="M0 0h3"/>
        <path data-name="선 84" transform="translate(12.001 19)" style="fill:none;stroke:#7742cc;stroke-linejoin:round;stroke-width:2px" d="M0 0h3"/>
    </g>
</svg>
