<svg xmlns="http://www.w3.org/2000/svg" width="11.639" height="11.657" viewBox="0 0 11.639 11.657">
    <path data-name="사각형 13" d="M1 0h7a1 1 0 0 1 1 1v1H1a1 1 0 0 1-1-1 1 1 0 0 1 1-1z" transform="rotate(-90 9.32 -.32)" style="fill:#3e3e5a"/>
    <path data-name="사각형 96" d="M1 0h8v1a1 1 0 0 1-1 1H1a1 1 0 0 1-1-1 1 1 0 0 1 1-1z" transform="translate(2.639)" style="fill:#3e3e5a"/>
    <path data-name="사각형 130" d="M1 0h12v1a1 1 0 0 1-1 1H1a1 1 0 0 1-1-1 1 1 0 0 1 1-1z" transform="rotate(-45 12.364 5.122)" style="fill:#3e3e5a"/>
</svg>
