<svg xmlns="http://www.w3.org/2000/svg" width="38" height="38" viewBox="0 0 38 38">
    <g transform="translate(5 8)">
        <rect data-name="사각형 124" width="38" height="38" rx="10" transform="translate(-5 -8)" style="fill:#7742cc"/>
        <g transform="translate(-812.847 -573)">
            <path data-name="패스 275" d="M831.5 573h-9.3a6.35 6.35 0 0 0-6.351 6.35v9.3A6.35 6.35 0 0 0 822.2 595h9.3a6.35 6.35 0 0 0 6.35-6.35v-9.3a6.35 6.35 0 0 0-6.35-6.35zm4.324 15.813a4.215 4.215 0 0 1-4.215 4.215h-9.518a4.215 4.215 0 0 1-4.215-4.215V579.3a4.215 4.215 0 0 1 4.215-4.215h9.518a4.215 4.215 0 0 1 4.215 4.215z" style="fill:#f8f8f8"/>
            <path data-name="패스 276" d="M829.564 580.731a6.065 6.065 0 1 0 6.065 6.065 6.066 6.066 0 0 0-6.065-6.065zm0 10a3.932 3.932 0 1 1 3.936-3.931 3.932 3.932 0 0 1-3.936 3.929z" transform="translate(-2.717 -2.746)" style="fill:#f8f8f8"/>
            <circle data-name="타원 26" cx="1.24" cy="1.24" r="1.24" transform="translate(831.561 576.835)" style="fill:#f8f8f8"/>
        </g>
    </g>
</svg>
