<svg xmlns="http://www.w3.org/2000/svg" width="38" height="38" viewBox="0 0 38 38">
    <g data-name="패스 301" style="fill:none">
        <path d="M10 0h18a10 10 0 0 1 10 10v18a10 10 0 0 1-10 10H10A10 10 0 0 1 0 28V10A10 10 0 0 1 10 0z" style="stroke:none"/>
        <path d="M10 2c-4.411 0-8 3.589-8 8v18c0 4.411 3.589 8 8 8h18c4.411 0 8-3.589 8-8V10c0-4.411-3.589-8-8-8H10m0-2h18c5.523 0 10 4.477 10 10v18c0 5.523-4.477 10-10 10H10C4.477 38 0 33.523 0 28V10C0 4.477 4.477 0 10 0z" style="fill:#dcdcdc;stroke:none"/>
    </g>
    <g transform="translate(-807.847 -565)">
        <path data-name="패스 275" d="M831.5 573h-9.3a6.35 6.35 0 0 0-6.351 6.35v9.3A6.35 6.35 0 0 0 822.2 595h9.3a6.35 6.35 0 0 0 6.35-6.35v-9.3a6.35 6.35 0 0 0-6.35-6.35zm4.324 15.813a4.215 4.215 0 0 1-4.215 4.215h-9.518a4.215 4.215 0 0 1-4.215-4.215V579.3a4.215 4.215 0 0 1 4.215-4.215h9.518a4.215 4.215 0 0 1 4.215 4.215z" style="fill:#dcdcdc"/>
        <path data-name="패스 276" d="M829.564 580.731a6.065 6.065 0 1 0 6.065 6.065 6.066 6.066 0 0 0-6.065-6.065zm0 10a3.932 3.932 0 1 1 3.936-3.931 3.932 3.932 0 0 1-3.936 3.929z" transform="translate(-2.717 -2.746)" style="fill:#dcdcdc"/>
        <circle data-name="타원 26" cx="1.24" cy="1.24" r="1.24" transform="translate(831.561 576.835)" style="fill:#dcdcdc"/>
    </g>
</svg>
