<svg xmlns="http://www.w3.org/2000/svg" width="38" height="38" viewBox="0 0 38 38">
    <g data-name="그룹 110">
        <g data-name="사각형 124" style="stroke:#dcdcdc;stroke-width:2px;fill:none">
            <rect width="38" height="38" rx="10" style="stroke:none"/>
            <rect x="1" y="1" width="36" height="36" rx="9" style="fill:none"/>
        </g>
        <path data-name="패스 43" d="M418.723 697.388c-2.4 0-4.676-1.622-4.676-3.624v-2.029c0-2 2.274-3.623 4.676-3.623z" transform="translate(-406.866 -669.792)" style="stroke-linejoin:round;stroke:#dcdcdc;stroke-width:2px;fill:none"/>
        <path data-name="패스 44" d="M446.223 697.388c2.4 0 4.676-1.622 4.676-3.624v-2.029c0-2-2.274-3.623-4.676-3.623z" transform="translate(-420.229 -669.792)" style="stroke-linejoin:round;stroke:#dcdcdc;stroke-width:2px;fill:none"/>
        <path data-name="패스 45" d="M422.128 691.24v-10.887a7.043 7.043 0 0 1 7.043-7.043 7.043 7.043 0 0 1 7.044 7.043v10.887" transform="translate(-410.222 -663.644)" style="stroke-linejoin:round;stroke:#dcdcdc;stroke-width:2px;fill:none"/>
    </g>
</svg>
